<?xml version="1.0" encoding="UTF-8" standalone="no"?>
<!-- Created with Inkscape (http://www.inkscape.org/) -->

<svg
   xmlns:dc="http://purl.org/dc/elements/1.1/"
   xmlns:cc="http://creativecommons.org/ns#"
   xmlns:rdf="http://www.w3.org/1999/02/22-rdf-syntax-ns#"
   xmlns:svg="http://www.w3.org/2000/svg"
   xmlns="http://www.w3.org/2000/svg"
   version="1.1"
   width="343.03018"
   height="352.10431"
   id="svg4918">
  <defs
     id="defs4920" />
  <metadata
     id="metadata4923">
    <rdf:RDF>
      <cc:Work
         rdf:about="">
        <dc:format>image/svg+xml</dc:format>
        <dc:type
           rdf:resource="http://purl.org/dc/dcmitype/StillImage" />
        <dc:title></dc:title>
      </cc:Work>
    </rdf:RDF>
  </metadata>
  <g
     transform="translate(-125.62777,-287.7386)"
     id="layer1"
     style="fill:#000000">
    <path
       d="m 304.04161,287.73865 c -2.34945,-0.001 -4.71359,0.0135 -7.0625,0.0312 -43.40907,0.0937 -88.83322,2.43894 -127.9375,22.875 -18.85356,10.06644 -37.43545,25.16272 -41.96875,47.125 -5.69331,27.37602 6.38057,54.54347 19.71875,77.84375 6.59799,11.45655 14.32084,22.18178 22,32.9375 24.15915,-16.10667 49.56459,-30.63588 77.4375,-39.1875 -16.29018,-12.9006 -32.61799,-27.1873 -42.0625,-46 -2.22543,-3.8929 -2.04097,-9.55528 2.46875,-11.71875 16.77033,-9.48848 36.22229,-13.34551 54.96875,-17.3125 27.18477,-5.06732 55.46866,-5.14189 82.75,-0.84375 12.08034,3.06745 24.82585,7.27323 34,15.96875 4.84506,6.31166 -1.36905,14.10744 -6.5625,17.90625 -4.53015,3.57597 -9.82438,5.94334 -14.875,8.59375 26.6283,6.47028 54.28541,13.67963 76.25,30.65625 6.47487,5.10057 11.64125,11.80691 14.65625,19.53125 15.55704,-24.42033 21.32043,-54.79865 16.6875,-83.375 -4.40784,-22.45698 -24.04746,-37.07571 -43.03125,-47.28125 -29.86641,-15.28841 -62.85077,-24.59275 -96.3125,-27.1875 -7.03593,-0.43895 -14.07638,-0.5595 -21.125,-0.5625 z m 46,145.6875 0.46875,0.15625 c 28.14867,11.35332 52.76854,33.44331 64.84375,61.5 4.05234,11.60109 4.62471,24.64321 2.0625,36.625 -8.11791,24.78591 -31.58581,39.84329 -54.0625,50.375 -38.73933,18.31977 -83.36494,17.8927 -125.03125,12.34375 -21.51963,-3.61746 -43.56419,-7.1399 -63.21875,-16.90625 -8.63658,-4.32414 -18.25927,-12.83583 -15.4375,-23.53125 3.05559,-10.19439 12.76835,-16.47436 20.46875,-23.125 2.41308,-1.854 4.91619,-3.59533 7.5,-5.21875 -20.36853,4.44618 -42.33837,12.09305 -54.34375,30.40625 -8.22933,12.03597 -3.82657,28.19858 5.28125,38.46875 18.81865,21.47787 46.47751,33.04269 73.9375,38.8125 38.55609,8.24112 78.38325,7.06075 117.5625,5.03125 24.56775,-1.50363 48.41154,-9.38749 70.875,-18.90625 27.62064,-12.29238 54.86209,-32.44565 64.375,-62.1875 6.74838,-22.11507 2.88014,-47.01716 -8.21875,-67.0625 -22.18635,-36.39177 -65.5887,-55.03534 -107.0625,-56.78125 z m -43.53125,3.84375 c -34.40043,1.87488 -67.61559,14.04186 -97.5,30.75 -6.46344,3.68964 -13.04663,7.58892 -19.0625,11.71875 28.24569,-6.69339 57.30795,-10.13957 86.34375,-11.09375 35.26416,-0.1485 70.85762,2.84187 105.03125,11.4375 2.18061,-0.0315 7.34015,3.74221 6.5,0.71875 -4.76892,-17.18307 -21.41401,-27.93524 -36.90625,-34.8125 -14.08293,-5.32584 -29.19985,-8.77495 -44.40625,-8.71875 z m -9.125,41.1875 c -0.83732,-0.0153 -1.69265,0.008 -2.53125,0.0312 -26.13897,0.14472 -50.06717,21.18691 -53.5625,47.125 -4.50369,25.81992 12.14509,53.21348 37.1875,61.15625 24.58566,8.79084 54.29256,-2.64823 66.46875,-25.84375 12.98727,-22.40748 7.05983,-53.37893 -13,-69.5 -9.68718,-8.14852 -22.00266,-12.73867 -34.5625,-12.96875 z"
       id="rect7368-4-0"
       style="color:#000000;fill:#000000;fill-opacity:1;fill-rule:nonzero;stroke:none;stroke-width:6;marker:none;visibility:visible;display:inline;overflow:visible;enable-background:accumulate" />
  </g>
</svg>
